<?xml version="1.0" standalone="no"?><!DOCTYPE svg PUBLIC "-//W3C//DTD SVG 1.1//EN" "http://www.w3.org/Graphics/SVG/1.1/DTD/svg11.dtd"><svg t="1616197944769" class="icon" viewBox="0 0 1024 1024" version="1.1" xmlns="http://www.w3.org/2000/svg" p-id="6723" xmlns:xlink="http://www.w3.org/1999/xlink" width="200" height="200"><defs><style type="text/css"></style></defs><path d="M713.159111 283.221333V228.352a9.159111 9.159111 0 0 0-9.130667-9.130667H265.159111a9.159111 9.159111 0 0 0-9.130667 9.130667v54.869333c0 5.034667 4.124444 9.130667 9.130667 9.130667h438.869333a9.159111 9.159111 0 0 0 9.130667-9.130667z m-448 100.579556a9.159111 9.159111 0 0 0-9.130667 9.130667v54.869333c0 5.006222 4.124444 9.130667 9.130667 9.130667h210.289778a9.159111 9.159111 0 0 0 9.159111-9.130667v-54.869333a9.159111 9.159111 0 0 0-9.159111-9.130667H265.159111z m429.738667 132.551111a246.840889 246.840889 0 0 0-246.897778 246.869333 246.840889 246.840889 0 0 0 246.897778 246.840889 246.840889 246.840889 0 0 0 246.840889-246.840889 246.840889 246.840889 0 0 0-246.840889-246.869333z m122.851555 369.720889a172.657778 172.657778 0 0 1-122.88 50.858667 172.657778 172.657778 0 0 1-122.851555-50.858667 172.657778 172.657778 0 0 1-50.858667-122.851556 172.657778 172.657778 0 0 1 50.858667-122.88 172.629333 172.629333 0 0 1 122.88-50.830222c46.364444 0 90.055111 18.062222 122.851555 50.858667a172.657778 172.657778 0 0 1 50.858667 122.851555 172.657778 172.657778 0 0 1-50.858667 122.88z m-159.431111-31.431111a36.579556 36.579556 0 1 0 73.159111 0 36.579556 36.579556 0 0 0-73.159111 0z m13.710222-73.130667h45.710223a9.159111 9.159111 0 0 0 9.159111-9.159111v-128a9.159111 9.159111 0 0 0-9.159111-9.130667h-45.710223a9.159111 9.159111 0 0 0-9.159111 9.130667v128c0 5.034667 4.124444 9.159111 9.159111 9.159111z m-242.289777 118.840889H164.608V95.800889h640v393.130667c0 5.034667 4.096 9.159111 9.130667 9.159111h64a9.159111 9.159111 0 0 0 9.159111-9.159111V50.090667c0-20.252444-16.355556-36.579556-36.579556-36.579556H118.897778c-20.252444 0-36.579556 16.327111-36.579556 36.579556v896c0 20.195556 16.327111 36.551111 36.579556 36.551111h310.840889a9.159111 9.159111 0 0 0 9.159111-9.130667v-64a9.159111 9.159111 0 0 0-9.159111-9.159111z" p-id="6724"></path></svg>