<?xml version="1.0" standalone="no"?><!DOCTYPE svg PUBLIC "-//W3C//DTD SVG 1.1//EN" "http://www.w3.org/Graphics/SVG/1.1/DTD/svg11.dtd"><svg t="1616197969417" class="icon" viewBox="0 0 1024 1024" version="1.1" xmlns="http://www.w3.org/2000/svg" p-id="7362" xmlns:xlink="http://www.w3.org/1999/xlink" width="200" height="200"><defs><style type="text/css"></style></defs><path d="M230 200c-16.568 0-30 13.432-30 30v140c0 16.568 13.432 30 30 30h140c16.568 0 30-13.432 30-30v-140c0-16.568-13.432-30-30-30h-140z m0-90h140c66.274 0 120 53.726 120 120v140c0 66.274-53.726 120-120 120h-140c-66.274 0-120-53.726-120-120v-140c0-66.274 53.726-120 120-120z m424 90c-16.568 0-30 13.432-30 30v140c0 16.568 13.432 30 30 30h140c16.568 0 30-13.432 30-30v-140c0-16.568-13.432-30-30-30h-140z m0-90h140c66.274 0 120 53.726 120 120v140c0 66.274-53.726 120-120 120h-140c-66.274 0-120-53.726-120-120v-140c0-66.274 53.726-120 120-120zM230 624c-16.568 0-30 13.432-30 30v140c0 16.568 13.432 30 30 30h140c16.568 0 30-13.432 30-30v-140c0-16.568-13.432-30-30-30h-140z m0-90h140c66.274 0 120 53.726 120 120v140c0 66.274-53.726 120-120 120h-140c-66.274 0-120-53.726-120-120v-140c0-66.274 53.726-120 120-120z m424 90c-16.568 0-30 13.432-30 30v140c0 16.568 13.432 30 30 30h140c16.568 0 30-13.432 30-30v-140c0-16.568-13.432-30-30-30h-140z m0-90h140c66.274 0 120 53.726 120 120v140c0 66.274-53.726 120-120 120h-140c-66.274 0-120-53.726-120-120v-140c0-66.274 53.726-120 120-120z" p-id="7363"></path></svg>