<?xml version="1.0" standalone="no"?><!DOCTYPE svg PUBLIC "-//W3C//DTD SVG 1.1//EN" "http://www.w3.org/Graphics/SVG/1.1/DTD/svg11.dtd"><svg t="1616197999271" class="icon" viewBox="0 0 1024 1024" version="1.1" xmlns="http://www.w3.org/2000/svg" p-id="8409" xmlns:xlink="http://www.w3.org/1999/xlink" width="200" height="200"><defs><style type="text/css"></style></defs><path d="M341.333333 725.333333 42.666667 725.333333c-25.6 0-42.666667-17.066667-42.666667-42.666667L0 42.666667c0-25.6 17.066667-42.666667 42.666667-42.666667l640 0c25.6 0 42.666667 17.066667 42.666667 42.666667l0 298.666667c0 25.6-17.066667 42.666667-42.666667 42.666667s-42.666667-17.066667-42.666667-42.666667L640 85.333333 85.333333 85.333333l0 554.666667 256 0c25.6 0 42.666667 17.066667 42.666667 42.666667S366.933333 725.333333 341.333333 725.333333z" p-id="8410"></path><path d="M981.333333 1024 341.333333 1024c-25.6 0-42.666667-17.066667-42.666667-42.666667L298.666667 341.333333c0-25.6 17.066667-42.666667 42.666667-42.666667l640 0c25.6 0 42.666667 17.066667 42.666667 42.666667l0 640C1024 1006.933333 1006.933333 1024 981.333333 1024zM384 938.666667l554.666667 0L938.666667 384 384 384 384 938.666667z" p-id="8411"></path></svg>