<?xml version="1.0" standalone="no"?><!DOCTYPE svg PUBLIC "-//W3C//DTD SVG 1.1//EN" "http://www.w3.org/Graphics/SVG/1.1/DTD/svg11.dtd"><svg t="1616197923090" class="icon" viewBox="0 0 1027 1024" version="1.1" xmlns="http://www.w3.org/2000/svg" p-id="5717" xmlns:xlink="http://www.w3.org/1999/xlink" width="200.5859375" height="200"><defs><style type="text/css"></style></defs><path d="M1020.8 332.8L939.2 89.6c-12.8-43.2-46.4-68.8-89.6-68.8H184c-43.2 0-76.8 25.6-89.6 64L4.8 328c-4.8 12.8-4.8 25.6-4.8 33.6v542.4c0 56 43.2 97.6 97.6 97.6h832c51.2 0 97.6-43.2 97.6-97.6V363.2c-1.6-9.6-1.6-22.4-6.4-30.4zM859.2 115.2L926.4 320H555.2V107.2h294.4c4.8 0 9.6 3.2 9.6 8z m-683.2 0c0-4.8 4.8-8 8-8h286.4V320H99.2l76.8-204.8z m750.4 801.6H99.2c-8 0-12.8-4.8-12.8-12.8V404.8h852.8v499.2c0 9.6-3.2 12.8-12.8 12.8z" p-id="5718"></path></svg>